Coordinates
version=1
nRows=8
nColumns=27
inDegrees=yes

Units are S.I. units (second, meters, Newtons, ...)
If the header above contains a line with 'inDegrees', this indicates whether rotational values are in degrees (yes) or radians (no).

endheader
time	pelvis_rotation	pelvis_tilt	pelvis_list	pelvis_tx	pelvis_ty	pelvis_tz	hip_flexion_r	hip_adduction_r	hip_rotation_r	knee_angle_r	knee_rotation_r	knee_adduction_r	knee_angle_r_beta	ankle_angle_r	subtalar_angle_r	mtp_angle_r	hip_flexion_l	hip_adduction_l	hip_rotation_l	knee_angle_l	knee_rotation_l	knee_adduction_l	knee_angle_l_beta	ankle_angle_l	subtalar_angle_l	mtp_angle_l
      3.91500000	      0.43438163	    -29.92924130	      6.11795322	      0.02177994	      0.79907183	     -1.17159132	     59.25670242	    -35.55988756	    -18.13676119	     40.60598103	     -0.76923535	      2.81203089	      0.70870807	      3.42355284	     13.21414258	      0.00000000	     53.94652204	    -22.88027424	    -18.03906767	     33.87610001	     -0.92808750	      1.15164479	      0.59124948	      0.73655482	     18.08026139	      0.00000000
      3.92000000	      0.69128425	    -30.07551882	      5.94444317	      0.02096907	      0.79767457	     -1.17128912	     59.49768048	    -35.75304354	    -18.57796648	     41.08921127	     -0.72060408	      3.21382869	      0.71714202	      3.59363776	     13.00046902	      0.00000000	     54.71528127	    -23.10464957	    -17.64317951	     34.48394247	     -0.87894685	      0.74561243	      0.60185834	      0.91209306	     17.89029626	      0.00000000
      3.92500000	      1.22874474	    -30.22915025	      5.71349796	      0.02015697	      0.79628169	     -1.17102468	     59.49820145	    -36.08695063	    -19.54617133	     41.53779996	     -0.71722925	      3.68702400	      0.72497137	      3.75809765	     12.85582408	      0.00000000	     55.69385424	    -23.19894196	    -16.78336568	     35.10944291	     -0.81967387	      0.43248732	      0.61277538	      1.05869444	     17.66042628	      0.00000000
      3.93000000	      0.93433361	    -30.20049446	      5.67378911	      0.01942629	      0.79491427	     -1.17078436	     60.00166596	    -36.04726484	    -19.10017298	     42.01971569	     -0.65632224	      3.97885152	      0.73338239	      3.89564822	     12.60588076	      0.00000000	     55.84901515	    -23.59294578	    -17.29283345	     35.59821246	     -0.79682230	     -0.11118279	      0.62130602	      1.22638292	     17.51818293	      0.00000000
      3.93500000	      0.91772763	    -30.95637451	      5.50580916	      0.01732110	      0.79299988	     -1.17045344	     61.33953820	    -36.00223578	    -18.70546699	     42.73543380	     -0.55003071	      4.03082870	      0.74587403	      4.00155061	     12.30622027	      0.00000000	     57.30163745	    -23.99900747	    -16.88072900	     36.43603027	     -0.68264412	     -0.33985920	      0.63592869	      1.44613933	     17.33373722	      0.00000000
      3.94000000	      1.02516834	    -30.39911804	      5.63489391	      0.01754737	      0.79196693	     -1.17046083	     60.95127435	    -36.40911955	    -19.08915613	     43.07948413	     -0.59548977	      4.59751093	      0.75187884	      4.16068502	     12.29881030	      0.00000000	     56.89440360	    -23.95795704	    -17.26174457	     36.67274780	     -0.78333654	     -0.95168120	      0.64006019	      1.54830837	     17.14604531	      0.00000000
      3.94500000	      0.81531855	    -30.28911636	      5.45923894	      0.01694376	      0.79072315	     -1.17019021	     61.13792873	    -36.33282648	    -19.10446149	     43.44990283	     -0.62969068	      4.94266031	      0.75834386	      4.26375788	     12.12481098	      0.00000000	     57.05303176	    -24.36964075	    -17.49424690	     37.14037993	     -0.75382547	     -1.46490571	      0.64822192	      1.71466421	     16.96585489	      0.00000000
      3.95000000	      0.78699653	    -30.51837797	      5.61269024	      0.01565554	      0.78910441	     -1.17015605	     62.01353590	    -36.55565061	    -18.62745658	     44.07219847	     -0.55143078	      5.12135144	      0.76920497	      4.43386449	     12.03052954	      0.00000000	     57.60973846	    -24.47588225	    -17.60524880	     37.66941047	     -0.73052847	     -1.76955541	      0.65745524	      1.87257397	     16.81127707	      0.00000000
